Patient4_TMGait_0pt6_02_left_42_EMG.mot
version=1
nRows=26
nColumns=33
inDegrees=no
endheader
time	1LAddLong	2LGlutMax	3LGlutMed	4LIliopsoas	5LSemiMemb	6LBicFemLong	7LRecFem	8LVastMed	9LVastLat	10LGasMed	11LTibAnt	12lTibPost	13LPeroneusLong	14LSol	15LExtDigLong	16LFlexDigLong	17RAddLong	18RGlutMax	19RGlutMed	20RIliopsoas	21RSemiMemb	22RBicFemLong	23RRecFem	24RVastMed	25RVastLat	26RGasMed	27RTibAnt	28RTibPost	29RPeroneusLong	30RSol	31RExtDigLong	32RFlexDigLong
52.558	0.010529	0.31998	-0.078583	-0.000305	0.010071	-0.011292	-0.028839	0.002289	0.035095	-0.02655	-0.001068	0.000763	0.049896	0.067291	-0.028381	-0.009003	-0.011139	-0.24933	-0.1831	0.22598	-0.039978	0.040894	0.17777	-0.024414	0.017853	-0.00885	-0.20264	-0.007477	0.074615	0.31067	-0.002441	-0.003815
52.559	0.009613	0.36545	-0.079193	-0.00473	0.009918	-0.025482	-0.031433	0.00351	0.048065	-0.034485	0.020447	-0.00946	0.092621	0.048676	0.034332	0.00061	-0.030823	-0.22751	-0.43579	0.13214	-0.17883	0.15396	-0.17975	-0.25177	-0.18127	-0.014496	-0.23956	-0.003204	-0.11597	0.31754	-0.006561	-0.00473
52.56	0.00885	0.40192	-0.013733	-0.006866	0.021515	-0.017242	-0.03952	-0.002747	0.034332	-0.043793	-0.014496	-0.009918	0.086975	0.032654	0.02594	-0.00473	-0.043945	-0.2121	-0.45532	-0.097198	-0.19272	0.15656	-0.50537	-0.13062	-0.081482	-0.017548	0.30823	-0.005035	-0.31708	0.10391	0.001984	-0.007019
52.561	0.010834	0.48157	0.026703	-0.001068	0.007629	-0.047302	-0.041504	0.003204	0.036163	-0.030212	-0.020752	-0.004272	0.071259	-0.019989	0.06958	0.005341	-0.016022	-0.18066	-0.1915	-0.08316	0.14893	-0.084686	-0.49759	0.32745	0.085754	-0.013428	0.46646	-0.009918	-0.28336	-0.18799	0.000458	-0.007935
52.562	0.011749	0.56137	-0.033264	0.010223	-0.006714	-0.03891	-0.040283	-0.000458	0.028381	-0.026855	0.00946	-0.00351	0.053864	-0.087891	0.041809	-0.005341	0.010529	-0.1651	-0.42114	-0.076141	0.13214	-0.14816	-0.37933	0.31082	0.18249	-0.011292	0.21316	-0.002747	-0.1619	-0.354	0.001068	-0.009918
52.563	0.005035	0.62302	-0.023651	0.003052	0.021057	-0.021057	-0.028229	0.00946	0.023041	-0.028687	0.026093	0.000153	0.015411	-0.080566	0.01297	0.003052	0.014648	-0.11704	0.075531	-0.15503	0.017853	-0.17059	-0.31632	0.1831	0.19394	-0.006256	-0.19012	-0.014343	-0.08194	-0.31738	-0.004425	0.009918
52.564	0.006104	0.64575	0.000763	0.016174	0.017853	-0.008545	-0.035706	0.000305	0.02594	-0.046234	0.049438	-0.001831	0.024567	-0.058594	0.10056	-0.004883	0.023041	-0.18799	-0.033722	-0.10559	0.005951	-0.17029	-0.16296	0.092621	0.11704	0.007019	-0.27802	0.000458	-0.085297	-0.25559	0.000153	0.006714
52.565	0.011749	0.75424	0.054474	-0.024261	0.012512	-0.014343	-0.046082	0.005035	0.020905	-0.04776	0.032806	0.002899	0.036316	-0.023804	-0.010681	0.016174	0.024567	-0.11673	-0.56839	-0.02594	0.005188	-0.12054	0.005646	0.028992	0.081635	0.010071	0.23621	-0.009613	-0.017242	-0.2417	-0.000458	0.00824
52.566	0.010529	0.85877	0.071564	-0.029144	0.016174	-0.003967	-0.030518	-0.00061	0.014648	-0.062714	-0.008392	-0.005341	0.098724	0.010986	-0.13367	0.006104	0.022736	-0.04303	-0.26321	0.070496	0.019531	-0.10834	0.028076	0.016327	0.14526	0.007172	0.15076	-0.003052	0.020752	-0.17227	0.003357	0.001831
52.567	0.003357	0.92987	0.036316	-0.01297	0.006409	-0.025787	-0.039673	0.003052	0.025177	-0.051575	-0.037689	-0.000763	0.09552	0.004425	-0.076904	0.003052	0.035706	-0.090485	0.3447	0.15427	-0.000153	-0.13001	0.04837	-0.013275	0.10635	-0.00061	-0.010986	-0.007629	0.037994	-0.062103	-0.000458	0
52.568	0.000763	0.95123	0.007782	0.003662	0.011597	-0.041199	-0.032806	0.005035	0.02243	-0.030823	-0.000916	-0.003204	0.051575	-0.032349	0.028381	0.003967	0.030365	-0.14893	0.012665	0.16571	-0.026398	-0.070038	0.075226	-0.081024	0.10254	0.001526	0.086517	-0.003052	0.032501	0.072327	0.000458	-0.003967
52.569	-0.002136	1.0628	0.01358	0.02533	0.01236	-0.027161	-0.039063	0.004272	0.022278	-0.036011	0.030823	-0.002289	0.029449	-0.028076	0.068665	0.002136	0.012512	-0.13825	-0.13107	0.12695	-0.040283	0.025787	0.14328	-0.12146	0.069733	-0.002289	0.26733	-0.004272	0.064392	-0.000916	-0.001221	0
52.57	-0.008698	1.1531	0.009308	-0.002441	-0.003357	-0.018768	-0.049438	0.004578	0.020905	-0.036316	-0.020752	-0.00351	0.036621	-0.014648	0.034027	-0.006866	-0.007172	-0.13184	-0.1976	0.097351	0.028839	0.027161	0.13016	-0.11658	0.072937	-0.003052	0.1651	-0.00946	0.00473	-0.06134	-0.001068	0.001068
52.571	0.000153	1.2135	0.00351	-0.008087	0.019226	-0.021362	-0.028687	0.003662	0.019073	-0.029907	-0.0354	0.006409	0.04303	-0.023804	0.016937	0.009918	-0.013733	-0.10422	0.014343	-0.034332	0.080566	0.031891	0.036469	0.002899	0.069275	-0.003052	-0.89996	-0.001678	0.11047	-0.046387	-0.000458	-0.005798
52.572	-0.009155	1.1783	0.001221	0.013123	-0.031281	-0.017853	-0.044708	0.006866	0.027618	-0.045929	-0.008698	-0.003052	0.071716	-0.021667	-0.009613	0.010223	0.005798	-0.14069	-0.078125	-0.053558	0.090485	-0.010986	0.030823	0.10071	0.047455	-0.007935	-0.51712	-0.00351	0.095215	-0.018921	0.001373	-0.001373
52.573	0.006866	1.1092	-0.003052	0.023956	-0.018768	-0.036163	-0.038757	0.001221	0.02243	-0.036011	0.072479	-0.000763	0.052032	-0.023041	0.014343	-0.003815	0.020294	-0.1886	-0.21713	-0.027924	0.13687	-0.087891	0.086823	0.059357	-0.005341	-0.005951	0.13992	-0.005341	0.11383	-0.057068	-0.001068	-0.011749
52.574	0.012817	1.0043	-0.018921	0.00412	-0.051575	-0.052795	-0.045624	0.006104	0.013733	-0.022125	0.0383	0.002747	0.055084	-0.00351	0.00061	0.005188	0.011902	-0.2504	-0.35996	-0.02182	0.14938	-0.07782	0.10727	0.002594	0.030365	-0.016327	0.10757	-0.003204	-0.014954	-0.02182	-0.002594	-0.016022
52.575	0.020752	0.88089	-0.043335	0.016174	-0.073242	-0.090637	-0.062256	0.000153	0.029907	-0.001068	0.02182	-0.005188	0.056915	0.005646	-0.028076	0.016785	-0.011139	-0.24307	-0.60593	-0.052795	-0.089111	0.018158	0.11658	-0.007324	0.025177	-0.020142	0.23117	0.005341	-0.18234	0.016327	-0.000305	-0.014648
52.576	0.015717	0.77103	-0.068512	0.000916	0.039825	-0.071411	-0.058441	-0.002899	0.027618	0.005341	0.017242	0.001373	0.052948	-0.027618	-0.037231	-0.007019	-0.009613	-0.25528	-0.68405	-0.086365	-0.14374	-0.017853	0.084534	0.013885	0.013428	-0.020752	0.29266	-0.008087	-0.31586	-0.20493	-0.006561	-0.013885
52.577	0.014496	0.66376	-0.093994	0.001984	0.06897	-0.027008	-0.05249	0.00061	0.019226	0.003204	0.014191	0.006409	0.046844	0.008392	-0.024719	-0.007935	-0.003052	-0.28412	-0.54047	-0.063782	-0.13168	-0.075073	0.08728	-0.030823	0.03479	-0.019226	0.15518	-0.009766	-0.36758	-0.48248	-0.001984	-0.014038
52.578	0.008545	0.60638	-0.10895	0.024567	0.046082	-0.014191	-0.044098	0.002594	0.01236	-0.022888	0.020905	0.003967	0.041046	0.002136	-0.006104	0.00885	0.006104	-0.22644	-0.051422	-0.043182	-0.2504	-0.11124	0.13809	-0.062714	0.005035	-0.001678	-0.009918	-0.011902	-0.16373	-0.73364	-0.002594	-0.012207
52.579	0.002289	0.50812	-0.13992	0.015106	-0.000305	-0.031433	-0.036011	0.004272	0.010834	-0.020294	0.018921	0.002289	0.03418	0.000763	0.003967	0.022736	0.016785	-0.21652	0.10956	0.002899	-0.31754	-0.068512	0.11856	-0.098724	0.022125	-0.010376	0.006104	-0.021667	-0.061646	-0.56137	-0.001831	-0.006714
52.58	0.008392	0.45502	-0.15717	-0.009766	0.004578	-0.046234	-0.050354	-0.000458	0.019531	-0.032501	0.014954	0.002441	0.045471	-0.012054	0.005646	0.027618	0.002441	-0.18448	-0.048981	0.010529	-0.20569	0.020447	0.06012	-0.047607	0.03952	-0.008545	0.064087	-0.012207	0.003204	-0.14603	-0.002594	-0.01358
52.581	0.001373	0.36591	-0.13886	0.016785	0.018158	-0.04715	-0.040283	-0.001831	0.014801	-0.037842	0.010986	0.000763	0.024719	-0.072327	0.010376	0.003815	-0.019531	-0.18875	-0.071869	0.025024	0.11078	0.14557	0.076141	0.018921	0.028534	-0.019073	0.066071	-0.003815	0.15152	0.21133	0.000458	-0.007324
52.582	0.014496	0.29144	-0.090332	0.010681	0.034485	-0.032043	-0.039978	0	0.006561	-0.049133	0.004578	0.005035	0.041199	-0.043182	0.007629	0.000305	-0.019226	-0.16022	-0.33829	0.010986	0.27557	0.11414	0.10819	0.062866	0.032959	-0.001221	0.024567	-0.002747	0.19959	0.29205	0.000763	-0.010834
52.583	-0.002441	0.1918	0.03479	0.003357	0.007172	-0.032654	-0.055542	0.001221	0.009308	-0.02243	0.006104	-0.008392	0.056152	-0.040894	0.001373	-0.011139	-0.006104	-0.14847	-0.037384	-0.12604	0.15823	0.074768	0.14282	0.026093	0.045471	-0.007935	0.000458	-0.000305	0.24582	0.19089	-0.001526	-0.007324
